<svg xmlns="http://www.w3.org/2000/svg" version="1.1" xmlns:xlink="http://www.w3.org/1999/xlink" xmlns:svgjs="http://svgjs.dev/svgjs" viewBox="0 0 800 800"><defs><linearGradient gradientTransform="rotate(270)" x1="50%" y1="0%" x2="50%" y2="100%" id="sssquiggly-grad"><stop stop-color="hsl(206, 75%, 49%)" stop-opacity="1" offset="0%"></stop><stop stop-color="hsl(331, 90%, 56%)" stop-opacity="1" offset="100%"></stop></linearGradient></defs><g stroke-width="2" stroke="hsla(0, 0%, 100%, 1.00)" fill="none" stroke-linecap="round" transform="matrix(1,0,0,1,0,56.42354202270508)"><path d="M10,10C21.805555555555557,13.125,40.97222222222223,28.958333333333332,66.66666666666667,25C92.36111111111111,21.041666666666668,105.55555555555557,-7.75,133.33333333333334,-9C161.11111111111111,-10.25,172.22222222222223,18.583333333333332,200,19C227.77777777777777,19.416666666666668,238.8888888888889,-12.833333333333334,266.6666666666667,-7C294.44444444444446,-1.166666666666666,305.5555555555556,50.75,333.33333333333337,47C361.11111111111114,43.25,372.22222222222223,-23.125,400,-25C427.77777777777777,-26.875,438.8888888888889,36.75,466.6666666666667,38C494.44444444444446,39.25,505.5555555555556,-18.375,533.3333333333334,-19C561.1111111111111,-19.625,572.2222222222222,34.583333333333336,600,35C627.7777777777778,35.416666666666664,638.8888888888889,-17.833333333333332,666.6666666666667,-17C694.4444444444446,-16.166666666666668,707.6388888888889,33.375,733.3333333333334,39C759.0277777777778,44.625,778.1944444444445,16.041666666666664,790,10"></path><path d="M10,10C21.805555555555557,13.125,40.97222222222223,28.958333333333332,66.66666666666667,25C92.36111111111111,21.041666666666668,105.55555555555557,-7.75,133.33333333333334,-9C161.11111111111111,-10.25,172.22222222222223,18.583333333333332,200,19C227.77777777777777,19.416666666666668,238.8888888888889,-12.833333333333334,266.6666666666667,-7C294.44444444444446,-1.166666666666666,305.5555555555556,50.75,333.33333333333337,47C361.11111111111114,43.25,372.22222222222223,-23.125,400,-25C427.77777777777777,-26.875,438.8888888888889,36.75,466.6666666666667,38C494.44444444444446,39.25,505.5555555555556,-18.375,533.3333333333334,-19C561.1111111111111,-19.625,572.2222222222222,34.583333333333336,600,35C627.7777777777778,35.416666666666664,638.8888888888889,-17.833333333333332,666.6666666666667,-17C694.4444444444446,-16.166666666666668,707.6388888888889,33.375,733.3333333333334,39C759.0277777777778,44.625,778.1944444444445,16.041666666666664,790,10" transform="matrix(1,0,0,1,0,665)"></path><path d="M10,10C21.805555555555557,13.125,40.97222222222223,28.958333333333332,66.66666666666667,25C92.36111111111111,21.041666666666668,105.55555555555557,-7.75,133.33333333333334,-9C161.11111111111111,-10.25,172.22222222222223,18.583333333333332,200,19C227.77777777777777,19.416666666666668,238.8888888888889,-12.833333333333334,266.6666666666667,-7C294.44444444444446,-1.166666666666666,305.5555555555556,50.75,333.33333333333337,47C361.11111111111114,43.25,372.22222222222223,-23.125,400,-25C427.77777777777777,-26.875,438.8888888888889,36.75,466.6666666666667,38C494.44444444444446,39.25,505.5555555555556,-18.375,533.3333333333334,-19C561.1111111111111,-19.625,572.2222222222222,34.583333333333336,600,35C627.7777777777778,35.416666666666664,638.8888888888889,-17.833333333333332,666.6666666666667,-17C694.4444444444446,-16.166666666666668,707.6388888888889,33.375,733.3333333333334,39C759.0277777777778,44.625,778.1944444444445,16.041666666666664,790,10" transform="matrix(1,0,0,1,0,630)"></path><path d="M10,10C21.805555555555557,13.125,40.97222222222223,28.958333333333332,66.66666666666667,25C92.36111111111111,21.041666666666668,105.55555555555557,-7.75,133.33333333333334,-9C161.11111111111111,-10.25,172.22222222222223,18.583333333333332,200,19C227.77777777777777,19.416666666666668,238.8888888888889,-12.833333333333334,266.6666666666667,-7C294.44444444444446,-1.166666666666666,305.5555555555556,50.75,333.33333333333337,47C361.11111111111114,43.25,372.22222222222223,-23.125,400,-25C427.77777777777777,-26.875,438.8888888888889,36.75,466.6666666666667,38C494.44444444444446,39.25,505.5555555555556,-18.375,533.3333333333334,-19C561.1111111111111,-19.625,572.2222222222222,34.583333333333336,600,35C627.7777777777778,35.416666666666664,638.8888888888889,-17.833333333333332,666.6666666666667,-17C694.4444444444446,-16.166666666666668,707.6388888888889,33.375,733.3333333333334,39C759.0277777777778,44.625,778.1944444444445,16.041666666666664,790,10" transform="matrix(1,0,0,1,0,595)"></path><path d="M10,10C21.805555555555557,13.125,40.97222222222223,28.958333333333332,66.66666666666667,25C92.36111111111111,21.041666666666668,105.55555555555557,-7.75,133.33333333333334,-9C161.11111111111111,-10.25,172.22222222222223,18.583333333333332,200,19C227.77777777777777,19.416666666666668,238.8888888888889,-12.833333333333334,266.6666666666667,-7C294.44444444444446,-1.166666666666666,305.5555555555556,50.75,333.33333333333337,47C361.11111111111114,43.25,372.22222222222223,-23.125,400,-25C427.77777777777777,-26.875,438.8888888888889,36.75,466.6666666666667,38C494.44444444444446,39.25,505.5555555555556,-18.375,533.3333333333334,-19C561.1111111111111,-19.625,572.2222222222222,34.583333333333336,600,35C627.7777777777778,35.416666666666664,638.8888888888889,-17.833333333333332,666.6666666666667,-17C694.4444444444446,-16.166666666666668,707.6388888888889,33.375,733.3333333333334,39C759.0277777777778,44.625,778.1944444444445,16.041666666666664,790,10" transform="matrix(1,0,0,1,0,560)"></path><path d="M10,10C21.805555555555557,13.125,40.97222222222223,28.958333333333332,66.66666666666667,25C92.36111111111111,21.041666666666668,105.55555555555557,-7.75,133.33333333333334,-9C161.11111111111111,-10.25,172.22222222222223,18.583333333333332,200,19C227.77777777777777,19.416666666666668,238.8888888888889,-12.833333333333334,266.6666666666667,-7C294.44444444444446,-1.166666666666666,305.5555555555556,50.75,333.33333333333337,47C361.11111111111114,43.25,372.22222222222223,-23.125,400,-25C427.77777777777777,-26.875,438.8888888888889,36.75,466.6666666666667,38C494.44444444444446,39.25,505.5555555555556,-18.375,533.3333333333334,-19C561.1111111111111,-19.625,572.2222222222222,34.583333333333336,600,35C627.7777777777778,35.416666666666664,638.8888888888889,-17.833333333333332,666.6666666666667,-17C694.4444444444446,-16.166666666666668,707.6388888888889,33.375,733.3333333333334,39C759.0277777777778,44.625,778.1944444444445,16.041666666666664,790,10" transform="matrix(1,0,0,1,0,525)"></path><path d="M10,10C21.805555555555557,13.125,40.97222222222223,28.958333333333332,66.66666666666667,25C92.36111111111111,21.041666666666668,105.55555555555557,-7.75,133.33333333333334,-9C161.11111111111111,-10.25,172.22222222222223,18.583333333333332,200,19C227.77777777777777,19.416666666666668,238.8888888888889,-12.833333333333334,266.6666666666667,-7C294.44444444444446,-1.166666666666666,305.5555555555556,50.75,333.33333333333337,47C361.11111111111114,43.25,372.22222222222223,-23.125,400,-25C427.77777777777777,-26.875,438.8888888888889,36.75,466.6666666666667,38C494.44444444444446,39.25,505.5555555555556,-18.375,533.3333333333334,-19C561.1111111111111,-19.625,572.2222222222222,34.583333333333336,600,35C627.7777777777778,35.416666666666664,638.8888888888889,-17.833333333333332,666.6666666666667,-17C694.4444444444446,-16.166666666666668,707.6388888888889,33.375,733.3333333333334,39C759.0277777777778,44.625,778.1944444444445,16.041666666666664,790,10" transform="matrix(1,0,0,1,0,490)"></path><path d="M10,10C21.805555555555557,13.125,40.97222222222223,28.958333333333332,66.66666666666667,25C92.36111111111111,21.041666666666668,105.55555555555557,-7.75,133.33333333333334,-9C161.11111111111111,-10.25,172.22222222222223,18.583333333333332,200,19C227.77777777777777,19.416666666666668,238.8888888888889,-12.833333333333334,266.6666666666667,-7C294.44444444444446,-1.166666666666666,305.5555555555556,50.75,333.33333333333337,47C361.11111111111114,43.25,372.22222222222223,-23.125,400,-25C427.77777777777777,-26.875,438.8888888888889,36.75,466.6666666666667,38C494.44444444444446,39.25,505.5555555555556,-18.375,533.3333333333334,-19C561.1111111111111,-19.625,572.2222222222222,34.583333333333336,600,35C627.7777777777778,35.416666666666664,638.8888888888889,-17.833333333333332,666.6666666666667,-17C694.4444444444446,-16.166666666666668,707.6388888888889,33.375,733.3333333333334,39C759.0277777777778,44.625,778.1944444444445,16.041666666666664,790,10" transform="matrix(1,0,0,1,0,455)"></path><path d="M10,10C21.805555555555557,13.125,40.97222222222223,28.958333333333332,66.66666666666667,25C92.36111111111111,21.041666666666668,105.55555555555557,-7.75,133.33333333333334,-9C161.11111111111111,-10.25,172.22222222222223,18.583333333333332,200,19C227.77777777777777,19.416666666666668,238.8888888888889,-12.833333333333334,266.6666666666667,-7C294.44444444444446,-1.166666666666666,305.5555555555556,50.75,333.33333333333337,47C361.11111111111114,43.25,372.22222222222223,-23.125,400,-25C427.77777777777777,-26.875,438.8888888888889,36.75,466.6666666666667,38C494.44444444444446,39.25,505.5555555555556,-18.375,533.3333333333334,-19C561.1111111111111,-19.625,572.2222222222222,34.583333333333336,600,35C627.7777777777778,35.416666666666664,638.8888888888889,-17.833333333333332,666.6666666666667,-17C694.4444444444446,-16.166666666666668,707.6388888888889,33.375,733.3333333333334,39C759.0277777777778,44.625,778.1944444444445,16.041666666666664,790,10" transform="matrix(1,0,0,1,0,420)"></path><path d="M10,10C21.805555555555557,13.125,40.97222222222223,28.958333333333332,66.66666666666667,25C92.36111111111111,21.041666666666668,105.55555555555557,-7.75,133.33333333333334,-9C161.11111111111111,-10.25,172.22222222222223,18.583333333333332,200,19C227.77777777777777,19.416666666666668,238.8888888888889,-12.833333333333334,266.6666666666667,-7C294.44444444444446,-1.166666666666666,305.5555555555556,50.75,333.33333333333337,47C361.11111111111114,43.25,372.22222222222223,-23.125,400,-25C427.77777777777777,-26.875,438.8888888888889,36.75,466.6666666666667,38C494.44444444444446,39.25,505.5555555555556,-18.375,533.3333333333334,-19C561.1111111111111,-19.625,572.2222222222222,34.583333333333336,600,35C627.7777777777778,35.416666666666664,638.8888888888889,-17.833333333333332,666.6666666666667,-17C694.4444444444446,-16.166666666666668,707.6388888888889,33.375,733.3333333333334,39C759.0277777777778,44.625,778.1944444444445,16.041666666666664,790,10" transform="matrix(1,0,0,1,0,385)"></path><path d="M10,10C21.805555555555557,13.125,40.97222222222223,28.958333333333332,66.66666666666667,25C92.36111111111111,21.041666666666668,105.55555555555557,-7.75,133.33333333333334,-9C161.11111111111111,-10.25,172.22222222222223,18.583333333333332,200,19C227.77777777777777,19.416666666666668,238.8888888888889,-12.833333333333334,266.6666666666667,-7C294.44444444444446,-1.166666666666666,305.5555555555556,50.75,333.33333333333337,47C361.11111111111114,43.25,372.22222222222223,-23.125,400,-25C427.77777777777777,-26.875,438.8888888888889,36.75,466.6666666666667,38C494.44444444444446,39.25,505.5555555555556,-18.375,533.3333333333334,-19C561.1111111111111,-19.625,572.2222222222222,34.583333333333336,600,35C627.7777777777778,35.416666666666664,638.8888888888889,-17.833333333333332,666.6666666666667,-17C694.4444444444446,-16.166666666666668,707.6388888888889,33.375,733.3333333333334,39C759.0277777777778,44.625,778.1944444444445,16.041666666666664,790,10" transform="matrix(1,0,0,1,0,350)"></path><path d="M10,10C21.805555555555557,13.125,40.97222222222223,28.958333333333332,66.66666666666667,25C92.36111111111111,21.041666666666668,105.55555555555557,-7.75,133.33333333333334,-9C161.11111111111111,-10.25,172.22222222222223,18.583333333333332,200,19C227.77777777777777,19.416666666666668,238.8888888888889,-12.833333333333334,266.6666666666667,-7C294.44444444444446,-1.166666666666666,305.5555555555556,50.75,333.33333333333337,47C361.11111111111114,43.25,372.22222222222223,-23.125,400,-25C427.77777777777777,-26.875,438.8888888888889,36.75,466.6666666666667,38C494.44444444444446,39.25,505.5555555555556,-18.375,533.3333333333334,-19C561.1111111111111,-19.625,572.2222222222222,34.583333333333336,600,35C627.7777777777778,35.416666666666664,638.8888888888889,-17.833333333333332,666.6666666666667,-17C694.4444444444446,-16.166666666666668,707.6388888888889,33.375,733.3333333333334,39C759.0277777777778,44.625,778.1944444444445,16.041666666666664,790,10" transform="matrix(1,0,0,1,0,315)"></path><path d="M10,10C21.805555555555557,13.125,40.97222222222223,28.958333333333332,66.66666666666667,25C92.36111111111111,21.041666666666668,105.55555555555557,-7.75,133.33333333333334,-9C161.11111111111111,-10.25,172.22222222222223,18.583333333333332,200,19C227.77777777777777,19.416666666666668,238.8888888888889,-12.833333333333334,266.6666666666667,-7C294.44444444444446,-1.166666666666666,305.5555555555556,50.75,333.33333333333337,47C361.11111111111114,43.25,372.22222222222223,-23.125,400,-25C427.77777777777777,-26.875,438.8888888888889,36.75,466.6666666666667,38C494.44444444444446,39.25,505.5555555555556,-18.375,533.3333333333334,-19C561.1111111111111,-19.625,572.2222222222222,34.583333333333336,600,35C627.7777777777778,35.416666666666664,638.8888888888889,-17.833333333333332,666.6666666666667,-17C694.4444444444446,-16.166666666666668,707.6388888888889,33.375,733.3333333333334,39C759.0277777777778,44.625,778.1944444444445,16.041666666666664,790,10" transform="matrix(1,0,0,1,0,280)"></path><path d="M10,10C21.805555555555557,13.125,40.97222222222223,28.958333333333332,66.66666666666667,25C92.36111111111111,21.041666666666668,105.55555555555557,-7.75,133.33333333333334,-9C161.11111111111111,-10.25,172.22222222222223,18.583333333333332,200,19C227.77777777777777,19.416666666666668,238.8888888888889,-12.833333333333334,266.6666666666667,-7C294.44444444444446,-1.166666666666666,305.5555555555556,50.75,333.33333333333337,47C361.11111111111114,43.25,372.22222222222223,-23.125,400,-25C427.77777777777777,-26.875,438.8888888888889,36.75,466.6666666666667,38C494.44444444444446,39.25,505.5555555555556,-18.375,533.3333333333334,-19C561.1111111111111,-19.625,572.2222222222222,34.583333333333336,600,35C627.7777777777778,35.416666666666664,638.8888888888889,-17.833333333333332,666.6666666666667,-17C694.4444444444446,-16.166666666666668,707.6388888888889,33.375,733.3333333333334,39C759.0277777777778,44.625,778.1944444444445,16.041666666666664,790,10" transform="matrix(1,0,0,1,0,245)"></path><path d="M10,10C21.805555555555557,13.125,40.97222222222223,28.958333333333332,66.66666666666667,25C92.36111111111111,21.041666666666668,105.55555555555557,-7.75,133.33333333333334,-9C161.11111111111111,-10.25,172.22222222222223,18.583333333333332,200,19C227.77777777777777,19.416666666666668,238.8888888888889,-12.833333333333334,266.6666666666667,-7C294.44444444444446,-1.166666666666666,305.5555555555556,50.75,333.33333333333337,47C361.11111111111114,43.25,372.22222222222223,-23.125,400,-25C427.77777777777777,-26.875,438.8888888888889,36.75,466.6666666666667,38C494.44444444444446,39.25,505.5555555555556,-18.375,533.3333333333334,-19C561.1111111111111,-19.625,572.2222222222222,34.583333333333336,600,35C627.7777777777778,35.416666666666664,638.8888888888889,-17.833333333333332,666.6666666666667,-17C694.4444444444446,-16.166666666666668,707.6388888888889,33.375,733.3333333333334,39C759.0277777777778,44.625,778.1944444444445,16.041666666666664,790,10" transform="matrix(1,0,0,1,0,210)"></path><path d="M10,10C21.805555555555557,13.125,40.97222222222223,28.958333333333332,66.66666666666667,25C92.36111111111111,21.041666666666668,105.55555555555557,-7.75,133.33333333333334,-9C161.11111111111111,-10.25,172.22222222222223,18.583333333333332,200,19C227.77777777777777,19.416666666666668,238.8888888888889,-12.833333333333334,266.6666666666667,-7C294.44444444444446,-1.166666666666666,305.5555555555556,50.75,333.33333333333337,47C361.11111111111114,43.25,372.22222222222223,-23.125,400,-25C427.77777777777777,-26.875,438.8888888888889,36.75,466.6666666666667,38C494.44444444444446,39.25,505.5555555555556,-18.375,533.3333333333334,-19C561.1111111111111,-19.625,572.2222222222222,34.583333333333336,600,35C627.7777777777778,35.416666666666664,638.8888888888889,-17.833333333333332,666.6666666666667,-17C694.4444444444446,-16.166666666666668,707.6388888888889,33.375,733.3333333333334,39C759.0277777777778,44.625,778.1944444444445,16.041666666666664,790,10" transform="matrix(1,0,0,1,0,175)"></path><path d="M10,10C21.805555555555557,13.125,40.97222222222223,28.958333333333332,66.66666666666667,25C92.36111111111111,21.041666666666668,105.55555555555557,-7.75,133.33333333333334,-9C161.11111111111111,-10.25,172.22222222222223,18.583333333333332,200,19C227.77777777777777,19.416666666666668,238.8888888888889,-12.833333333333334,266.6666666666667,-7C294.44444444444446,-1.166666666666666,305.5555555555556,50.75,333.33333333333337,47C361.11111111111114,43.25,372.22222222222223,-23.125,400,-25C427.77777777777777,-26.875,438.8888888888889,36.75,466.6666666666667,38C494.44444444444446,39.25,505.5555555555556,-18.375,533.3333333333334,-19C561.1111111111111,-19.625,572.2222222222222,34.583333333333336,600,35C627.7777777777778,35.416666666666664,638.8888888888889,-17.833333333333332,666.6666666666667,-17C694.4444444444446,-16.166666666666668,707.6388888888889,33.375,733.3333333333334,39C759.0277777777778,44.625,778.1944444444445,16.041666666666664,790,10" transform="matrix(1,0,0,1,0,140)"></path><path d="M10,10C21.805555555555557,13.125,40.97222222222223,28.958333333333332,66.66666666666667,25C92.36111111111111,21.041666666666668,105.55555555555557,-7.75,133.33333333333334,-9C161.11111111111111,-10.25,172.22222222222223,18.583333333333332,200,19C227.77777777777777,19.416666666666668,238.8888888888889,-12.833333333333334,266.6666666666667,-7C294.44444444444446,-1.166666666666666,305.5555555555556,50.75,333.33333333333337,47C361.11111111111114,43.25,372.22222222222223,-23.125,400,-25C427.77777777777777,-26.875,438.8888888888889,36.75,466.6666666666667,38C494.44444444444446,39.25,505.5555555555556,-18.375,533.3333333333334,-19C561.1111111111111,-19.625,572.2222222222222,34.583333333333336,600,35C627.7777777777778,35.416666666666664,638.8888888888889,-17.833333333333332,666.6666666666667,-17C694.4444444444446,-16.166666666666668,707.6388888888889,33.375,733.3333333333334,39C759.0277777777778,44.625,778.1944444444445,16.041666666666664,790,10" transform="matrix(1,0,0,1,0,105)"></path><path d="M10,10C21.805555555555557,13.125,40.97222222222223,28.958333333333332,66.66666666666667,25C92.36111111111111,21.041666666666668,105.55555555555557,-7.75,133.33333333333334,-9C161.11111111111111,-10.25,172.22222222222223,18.583333333333332,200,19C227.77777777777777,19.416666666666668,238.8888888888889,-12.833333333333334,266.6666666666667,-7C294.44444444444446,-1.166666666666666,305.5555555555556,50.75,333.33333333333337,47C361.11111111111114,43.25,372.22222222222223,-23.125,400,-25C427.77777777777777,-26.875,438.8888888888889,36.75,466.6666666666667,38C494.44444444444446,39.25,505.5555555555556,-18.375,533.3333333333334,-19C561.1111111111111,-19.625,572.2222222222222,34.583333333333336,600,35C627.7777777777778,35.416666666666664,638.8888888888889,-17.833333333333332,666.6666666666667,-17C694.4444444444446,-16.166666666666668,707.6388888888889,33.375,733.3333333333334,39C759.0277777777778,44.625,778.1944444444445,16.041666666666664,790,10" transform="matrix(1,0,0,1,0,70)"></path><path d="M10,10C21.805555555555557,13.125,40.97222222222223,28.958333333333332,66.66666666666667,25C92.36111111111111,21.041666666666668,105.55555555555557,-7.75,133.33333333333334,-9C161.11111111111111,-10.25,172.22222222222223,18.583333333333332,200,19C227.77777777777777,19.416666666666668,238.8888888888889,-12.833333333333334,266.6666666666667,-7C294.44444444444446,-1.166666666666666,305.5555555555556,50.75,333.33333333333337,47C361.11111111111114,43.25,372.22222222222223,-23.125,400,-25C427.77777777777777,-26.875,438.8888888888889,36.75,466.6666666666667,38C494.44444444444446,39.25,505.5555555555556,-18.375,533.3333333333334,-19C561.1111111111111,-19.625,572.2222222222222,34.583333333333336,600,35C627.7777777777778,35.416666666666664,638.8888888888889,-17.833333333333332,666.6666666666667,-17C694.4444444444446,-16.166666666666668,707.6388888888889,33.375,733.3333333333334,39C759.0277777777778,44.625,778.1944444444445,16.041666666666664,790,10" transform="matrix(1,0,0,1,0,35)"></path></g></svg>