<svg xmlns="http://www.w3.org/2000/svg" version="1.1" xmlns:xlink="http://www.w3.org/1999/xlink" xmlns:svgjs="http://svgjs.dev/svgjs" viewBox="0 0 800 800"><g stroke-width="2" stroke="hsla(0, 0%, 0%, 1.00)" fill="none" stroke-linecap="round" transform="matrix(1,0,0,1,0,-293.9859199523926)"><path d="M10,10C21.805555555555557,14.583333333333332,40.97222222222223,40.125,66.66666666666667,32C92.36111111111111,23.875,105.55555555555557,-31.708333333333332,133.33333333333334,-29C161.11111111111111,-26.291666666666668,172.22222222222223,44.375,200,45C227.77777777777777,45.625,238.8888888888889,-25.166666666666668,266.6666666666667,-26C294.44444444444446,-26.833333333333332,305.5555555555556,37.041666666666664,333.33333333333337,41C361.11111111111114,44.958333333333336,372.22222222222223,-9.291666666666666,400,-7C427.77777777777777,-4.708333333333334,438.8888888888889,49.916666666666664,466.6666666666667,52C494.44444444444446,54.083333333333336,505.5555555555556,7.375,533.3333333333334,3C561.1111111111111,-1.375,572.2222222222222,32.041666666666664,600,31C627.7777777777778,29.958333333333332,638.8888888888889,-4.5,666.6666666666667,-2C694.4444444444446,0.5,707.6388888888889,40.5,733.3333333333334,43C759.0277777777778,45.5,778.1944444444445,16.875,790,10"></path><path d="M10,10C21.805555555555557,14.583333333333332,40.97222222222223,40.125,66.66666666666667,32C92.36111111111111,23.875,105.55555555555557,-31.708333333333332,133.33333333333334,-29C161.11111111111111,-26.291666666666668,172.22222222222223,44.375,200,45C227.77777777777777,45.625,238.8888888888889,-25.166666666666668,266.6666666666667,-26C294.44444444444446,-26.833333333333332,305.5555555555556,37.041666666666664,333.33333333333337,41C361.11111111111114,44.958333333333336,372.22222222222223,-9.291666666666666,400,-7C427.77777777777777,-4.708333333333334,438.8888888888889,49.916666666666664,466.6666666666667,52C494.44444444444446,54.083333333333336,505.5555555555556,7.375,533.3333333333334,3C561.1111111111111,-1.375,572.2222222222222,32.041666666666664,600,31C627.7777777777778,29.958333333333332,638.8888888888889,-4.5,666.6666666666667,-2C694.4444444444446,0.5,707.6388888888889,40.5,733.3333333333334,43C759.0277777777778,45.5,778.1944444444445,16.875,790,10" transform="matrix(1,0,0,1,0,1365)"></path><path d="M10,10C21.805555555555557,14.583333333333332,40.97222222222223,40.125,66.66666666666667,32C92.36111111111111,23.875,105.55555555555557,-31.708333333333332,133.33333333333334,-29C161.11111111111111,-26.291666666666668,172.22222222222223,44.375,200,45C227.77777777777777,45.625,238.8888888888889,-25.166666666666668,266.6666666666667,-26C294.44444444444446,-26.833333333333332,305.5555555555556,37.041666666666664,333.33333333333337,41C361.11111111111114,44.958333333333336,372.22222222222223,-9.291666666666666,400,-7C427.77777777777777,-4.708333333333334,438.8888888888889,49.916666666666664,466.6666666666667,52C494.44444444444446,54.083333333333336,505.5555555555556,7.375,533.3333333333334,3C561.1111111111111,-1.375,572.2222222222222,32.041666666666664,600,31C627.7777777777778,29.958333333333332,638.8888888888889,-4.5,666.6666666666667,-2C694.4444444444446,0.5,707.6388888888889,40.5,733.3333333333334,43C759.0277777777778,45.5,778.1944444444445,16.875,790,10" transform="matrix(1,0,0,1,0,1344)"></path><path d="M10,10C21.805555555555557,14.583333333333332,40.97222222222223,40.125,66.66666666666667,32C92.36111111111111,23.875,105.55555555555557,-31.708333333333332,133.33333333333334,-29C161.11111111111111,-26.291666666666668,172.22222222222223,44.375,200,45C227.77777777777777,45.625,238.8888888888889,-25.166666666666668,266.6666666666667,-26C294.44444444444446,-26.833333333333332,305.5555555555556,37.041666666666664,333.33333333333337,41C361.11111111111114,44.958333333333336,372.22222222222223,-9.291666666666666,400,-7C427.77777777777777,-4.708333333333334,438.8888888888889,49.916666666666664,466.6666666666667,52C494.44444444444446,54.083333333333336,505.5555555555556,7.375,533.3333333333334,3C561.1111111111111,-1.375,572.2222222222222,32.041666666666664,600,31C627.7777777777778,29.958333333333332,638.8888888888889,-4.5,666.6666666666667,-2C694.4444444444446,0.5,707.6388888888889,40.5,733.3333333333334,43C759.0277777777778,45.5,778.1944444444445,16.875,790,10" transform="matrix(1,0,0,1,0,1323)"></path><path d="M10,10C21.805555555555557,14.583333333333332,40.97222222222223,40.125,66.66666666666667,32C92.36111111111111,23.875,105.55555555555557,-31.708333333333332,133.33333333333334,-29C161.11111111111111,-26.291666666666668,172.22222222222223,44.375,200,45C227.77777777777777,45.625,238.8888888888889,-25.166666666666668,266.6666666666667,-26C294.44444444444446,-26.833333333333332,305.5555555555556,37.041666666666664,333.33333333333337,41C361.11111111111114,44.958333333333336,372.22222222222223,-9.291666666666666,400,-7C427.77777777777777,-4.708333333333334,438.8888888888889,49.916666666666664,466.6666666666667,52C494.44444444444446,54.083333333333336,505.5555555555556,7.375,533.3333333333334,3C561.1111111111111,-1.375,572.2222222222222,32.041666666666664,600,31C627.7777777777778,29.958333333333332,638.8888888888889,-4.5,666.6666666666667,-2C694.4444444444446,0.5,707.6388888888889,40.5,733.3333333333334,43C759.0277777777778,45.5,778.1944444444445,16.875,790,10" transform="matrix(1,0,0,1,0,1302)"></path><path d="M10,10C21.805555555555557,14.583333333333332,40.97222222222223,40.125,66.66666666666667,32C92.36111111111111,23.875,105.55555555555557,-31.708333333333332,133.33333333333334,-29C161.11111111111111,-26.291666666666668,172.22222222222223,44.375,200,45C227.77777777777777,45.625,238.8888888888889,-25.166666666666668,266.6666666666667,-26C294.44444444444446,-26.833333333333332,305.5555555555556,37.041666666666664,333.33333333333337,41C361.11111111111114,44.958333333333336,372.22222222222223,-9.291666666666666,400,-7C427.77777777777777,-4.708333333333334,438.8888888888889,49.916666666666664,466.6666666666667,52C494.44444444444446,54.083333333333336,505.5555555555556,7.375,533.3333333333334,3C561.1111111111111,-1.375,572.2222222222222,32.041666666666664,600,31C627.7777777777778,29.958333333333332,638.8888888888889,-4.5,666.6666666666667,-2C694.4444444444446,0.5,707.6388888888889,40.5,733.3333333333334,43C759.0277777777778,45.5,778.1944444444445,16.875,790,10" transform="matrix(1,0,0,1,0,1281)"></path><path d="M10,10C21.805555555555557,14.583333333333332,40.97222222222223,40.125,66.66666666666667,32C92.36111111111111,23.875,105.55555555555557,-31.708333333333332,133.33333333333334,-29C161.11111111111111,-26.291666666666668,172.22222222222223,44.375,200,45C227.77777777777777,45.625,238.8888888888889,-25.166666666666668,266.6666666666667,-26C294.44444444444446,-26.833333333333332,305.5555555555556,37.041666666666664,333.33333333333337,41C361.11111111111114,44.958333333333336,372.22222222222223,-9.291666666666666,400,-7C427.77777777777777,-4.708333333333334,438.8888888888889,49.916666666666664,466.6666666666667,52C494.44444444444446,54.083333333333336,505.5555555555556,7.375,533.3333333333334,3C561.1111111111111,-1.375,572.2222222222222,32.041666666666664,600,31C627.7777777777778,29.958333333333332,638.8888888888889,-4.5,666.6666666666667,-2C694.4444444444446,0.5,707.6388888888889,40.5,733.3333333333334,43C759.0277777777778,45.5,778.1944444444445,16.875,790,10" transform="matrix(1,0,0,1,0,1260)"></path><path d="M10,10C21.805555555555557,14.583333333333332,40.97222222222223,40.125,66.66666666666667,32C92.36111111111111,23.875,105.55555555555557,-31.708333333333332,133.33333333333334,-29C161.11111111111111,-26.291666666666668,172.22222222222223,44.375,200,45C227.77777777777777,45.625,238.8888888888889,-25.166666666666668,266.6666666666667,-26C294.44444444444446,-26.833333333333332,305.5555555555556,37.041666666666664,333.33333333333337,41C361.11111111111114,44.958333333333336,372.22222222222223,-9.291666666666666,400,-7C427.77777777777777,-4.708333333333334,438.8888888888889,49.916666666666664,466.6666666666667,52C494.44444444444446,54.083333333333336,505.5555555555556,7.375,533.3333333333334,3C561.1111111111111,-1.375,572.2222222222222,32.041666666666664,600,31C627.7777777777778,29.958333333333332,638.8888888888889,-4.5,666.6666666666667,-2C694.4444444444446,0.5,707.6388888888889,40.5,733.3333333333334,43C759.0277777777778,45.5,778.1944444444445,16.875,790,10" transform="matrix(1,0,0,1,0,1239)"></path><path d="M10,10C21.805555555555557,14.583333333333332,40.97222222222223,40.125,66.66666666666667,32C92.36111111111111,23.875,105.55555555555557,-31.708333333333332,133.33333333333334,-29C161.11111111111111,-26.291666666666668,172.22222222222223,44.375,200,45C227.77777777777777,45.625,238.8888888888889,-25.166666666666668,266.6666666666667,-26C294.44444444444446,-26.833333333333332,305.5555555555556,37.041666666666664,333.33333333333337,41C361.11111111111114,44.958333333333336,372.22222222222223,-9.291666666666666,400,-7C427.77777777777777,-4.708333333333334,438.8888888888889,49.916666666666664,466.6666666666667,52C494.44444444444446,54.083333333333336,505.5555555555556,7.375,533.3333333333334,3C561.1111111111111,-1.375,572.2222222222222,32.041666666666664,600,31C627.7777777777778,29.958333333333332,638.8888888888889,-4.5,666.6666666666667,-2C694.4444444444446,0.5,707.6388888888889,40.5,733.3333333333334,43C759.0277777777778,45.5,778.1944444444445,16.875,790,10" transform="matrix(1,0,0,1,0,1218)"></path><path d="M10,10C21.805555555555557,14.583333333333332,40.97222222222223,40.125,66.66666666666667,32C92.36111111111111,23.875,105.55555555555557,-31.708333333333332,133.33333333333334,-29C161.11111111111111,-26.291666666666668,172.22222222222223,44.375,200,45C227.77777777777777,45.625,238.8888888888889,-25.166666666666668,266.6666666666667,-26C294.44444444444446,-26.833333333333332,305.5555555555556,37.041666666666664,333.33333333333337,41C361.11111111111114,44.958333333333336,372.22222222222223,-9.291666666666666,400,-7C427.77777777777777,-4.708333333333334,438.8888888888889,49.916666666666664,466.6666666666667,52C494.44444444444446,54.083333333333336,505.5555555555556,7.375,533.3333333333334,3C561.1111111111111,-1.375,572.2222222222222,32.041666666666664,600,31C627.7777777777778,29.958333333333332,638.8888888888889,-4.5,666.6666666666667,-2C694.4444444444446,0.5,707.6388888888889,40.5,733.3333333333334,43C759.0277777777778,45.5,778.1944444444445,16.875,790,10" transform="matrix(1,0,0,1,0,1197)"></path><path d="M10,10C21.805555555555557,14.583333333333332,40.97222222222223,40.125,66.66666666666667,32C92.36111111111111,23.875,105.55555555555557,-31.708333333333332,133.33333333333334,-29C161.11111111111111,-26.291666666666668,172.22222222222223,44.375,200,45C227.77777777777777,45.625,238.8888888888889,-25.166666666666668,266.6666666666667,-26C294.44444444444446,-26.833333333333332,305.5555555555556,37.041666666666664,333.33333333333337,41C361.11111111111114,44.958333333333336,372.22222222222223,-9.291666666666666,400,-7C427.77777777777777,-4.708333333333334,438.8888888888889,49.916666666666664,466.6666666666667,52C494.44444444444446,54.083333333333336,505.5555555555556,7.375,533.3333333333334,3C561.1111111111111,-1.375,572.2222222222222,32.041666666666664,600,31C627.7777777777778,29.958333333333332,638.8888888888889,-4.5,666.6666666666667,-2C694.4444444444446,0.5,707.6388888888889,40.5,733.3333333333334,43C759.0277777777778,45.5,778.1944444444445,16.875,790,10" transform="matrix(1,0,0,1,0,1176)"></path><path d="M10,10C21.805555555555557,14.583333333333332,40.97222222222223,40.125,66.66666666666667,32C92.36111111111111,23.875,105.55555555555557,-31.708333333333332,133.33333333333334,-29C161.11111111111111,-26.291666666666668,172.22222222222223,44.375,200,45C227.77777777777777,45.625,238.8888888888889,-25.166666666666668,266.6666666666667,-26C294.44444444444446,-26.833333333333332,305.5555555555556,37.041666666666664,333.33333333333337,41C361.11111111111114,44.958333333333336,372.22222222222223,-9.291666666666666,400,-7C427.77777777777777,-4.708333333333334,438.8888888888889,49.916666666666664,466.6666666666667,52C494.44444444444446,54.083333333333336,505.5555555555556,7.375,533.3333333333334,3C561.1111111111111,-1.375,572.2222222222222,32.041666666666664,600,31C627.7777777777778,29.958333333333332,638.8888888888889,-4.5,666.6666666666667,-2C694.4444444444446,0.5,707.6388888888889,40.5,733.3333333333334,43C759.0277777777778,45.5,778.1944444444445,16.875,790,10" transform="matrix(1,0,0,1,0,1155)"></path><path d="M10,10C21.805555555555557,14.583333333333332,40.97222222222223,40.125,66.66666666666667,32C92.36111111111111,23.875,105.55555555555557,-31.708333333333332,133.33333333333334,-29C161.11111111111111,-26.291666666666668,172.22222222222223,44.375,200,45C227.77777777777777,45.625,238.8888888888889,-25.166666666666668,266.6666666666667,-26C294.44444444444446,-26.833333333333332,305.5555555555556,37.041666666666664,333.33333333333337,41C361.11111111111114,44.958333333333336,372.22222222222223,-9.291666666666666,400,-7C427.77777777777777,-4.708333333333334,438.8888888888889,49.916666666666664,466.6666666666667,52C494.44444444444446,54.083333333333336,505.5555555555556,7.375,533.3333333333334,3C561.1111111111111,-1.375,572.2222222222222,32.041666666666664,600,31C627.7777777777778,29.958333333333332,638.8888888888889,-4.5,666.6666666666667,-2C694.4444444444446,0.5,707.6388888888889,40.5,733.3333333333334,43C759.0277777777778,45.5,778.1944444444445,16.875,790,10" transform="matrix(1,0,0,1,0,1134)"></path><path d="M10,10C21.805555555555557,14.583333333333332,40.97222222222223,40.125,66.66666666666667,32C92.36111111111111,23.875,105.55555555555557,-31.708333333333332,133.33333333333334,-29C161.11111111111111,-26.291666666666668,172.22222222222223,44.375,200,45C227.77777777777777,45.625,238.8888888888889,-25.166666666666668,266.6666666666667,-26C294.44444444444446,-26.833333333333332,305.5555555555556,37.041666666666664,333.33333333333337,41C361.11111111111114,44.958333333333336,372.22222222222223,-9.291666666666666,400,-7C427.77777777777777,-4.708333333333334,438.8888888888889,49.916666666666664,466.6666666666667,52C494.44444444444446,54.083333333333336,505.5555555555556,7.375,533.3333333333334,3C561.1111111111111,-1.375,572.2222222222222,32.041666666666664,600,31C627.7777777777778,29.958333333333332,638.8888888888889,-4.5,666.6666666666667,-2C694.4444444444446,0.5,707.6388888888889,40.5,733.3333333333334,43C759.0277777777778,45.5,778.1944444444445,16.875,790,10" transform="matrix(1,0,0,1,0,1113)"></path><path d="M10,10C21.805555555555557,14.583333333333332,40.97222222222223,40.125,66.66666666666667,32C92.36111111111111,23.875,105.55555555555557,-31.708333333333332,133.33333333333334,-29C161.11111111111111,-26.291666666666668,172.22222222222223,44.375,200,45C227.77777777777777,45.625,238.8888888888889,-25.166666666666668,266.6666666666667,-26C294.44444444444446,-26.833333333333332,305.5555555555556,37.041666666666664,333.33333333333337,41C361.11111111111114,44.958333333333336,372.22222222222223,-9.291666666666666,400,-7C427.77777777777777,-4.708333333333334,438.8888888888889,49.916666666666664,466.6666666666667,52C494.44444444444446,54.083333333333336,505.5555555555556,7.375,533.3333333333334,3C561.1111111111111,-1.375,572.2222222222222,32.041666666666664,600,31C627.7777777777778,29.958333333333332,638.8888888888889,-4.5,666.6666666666667,-2C694.4444444444446,0.5,707.6388888888889,40.5,733.3333333333334,43C759.0277777777778,45.5,778.1944444444445,16.875,790,10" transform="matrix(1,0,0,1,0,1092)"></path><path d="M10,10C21.805555555555557,14.583333333333332,40.97222222222223,40.125,66.66666666666667,32C92.36111111111111,23.875,105.55555555555557,-31.708333333333332,133.33333333333334,-29C161.11111111111111,-26.291666666666668,172.22222222222223,44.375,200,45C227.77777777777777,45.625,238.8888888888889,-25.166666666666668,266.6666666666667,-26C294.44444444444446,-26.833333333333332,305.5555555555556,37.041666666666664,333.33333333333337,41C361.11111111111114,44.958333333333336,372.22222222222223,-9.291666666666666,400,-7C427.77777777777777,-4.708333333333334,438.8888888888889,49.916666666666664,466.6666666666667,52C494.44444444444446,54.083333333333336,505.5555555555556,7.375,533.3333333333334,3C561.1111111111111,-1.375,572.2222222222222,32.041666666666664,600,31C627.7777777777778,29.958333333333332,638.8888888888889,-4.5,666.6666666666667,-2C694.4444444444446,0.5,707.6388888888889,40.5,733.3333333333334,43C759.0277777777778,45.5,778.1944444444445,16.875,790,10" transform="matrix(1,0,0,1,0,1071)"></path><path d="M10,10C21.805555555555557,14.583333333333332,40.97222222222223,40.125,66.66666666666667,32C92.36111111111111,23.875,105.55555555555557,-31.708333333333332,133.33333333333334,-29C161.11111111111111,-26.291666666666668,172.22222222222223,44.375,200,45C227.77777777777777,45.625,238.8888888888889,-25.166666666666668,266.6666666666667,-26C294.44444444444446,-26.833333333333332,305.5555555555556,37.041666666666664,333.33333333333337,41C361.11111111111114,44.958333333333336,372.22222222222223,-9.291666666666666,400,-7C427.77777777777777,-4.708333333333334,438.8888888888889,49.916666666666664,466.6666666666667,52C494.44444444444446,54.083333333333336,505.5555555555556,7.375,533.3333333333334,3C561.1111111111111,-1.375,572.2222222222222,32.041666666666664,600,31C627.7777777777778,29.958333333333332,638.8888888888889,-4.5,666.6666666666667,-2C694.4444444444446,0.5,707.6388888888889,40.5,733.3333333333334,43C759.0277777777778,45.5,778.1944444444445,16.875,790,10" transform="matrix(1,0,0,1,0,1050)"></path><path d="M10,10C21.805555555555557,14.583333333333332,40.97222222222223,40.125,66.66666666666667,32C92.36111111111111,23.875,105.55555555555557,-31.708333333333332,133.33333333333334,-29C161.11111111111111,-26.291666666666668,172.22222222222223,44.375,200,45C227.77777777777777,45.625,238.8888888888889,-25.166666666666668,266.6666666666667,-26C294.44444444444446,-26.833333333333332,305.5555555555556,37.041666666666664,333.33333333333337,41C361.11111111111114,44.958333333333336,372.22222222222223,-9.291666666666666,400,-7C427.77777777777777,-4.708333333333334,438.8888888888889,49.916666666666664,466.6666666666667,52C494.44444444444446,54.083333333333336,505.5555555555556,7.375,533.3333333333334,3C561.1111111111111,-1.375,572.2222222222222,32.041666666666664,600,31C627.7777777777778,29.958333333333332,638.8888888888889,-4.5,666.6666666666667,-2C694.4444444444446,0.5,707.6388888888889,40.5,733.3333333333334,43C759.0277777777778,45.5,778.1944444444445,16.875,790,10" transform="matrix(1,0,0,1,0,1029)"></path><path d="M10,10C21.805555555555557,14.583333333333332,40.97222222222223,40.125,66.66666666666667,32C92.36111111111111,23.875,105.55555555555557,-31.708333333333332,133.33333333333334,-29C161.11111111111111,-26.291666666666668,172.22222222222223,44.375,200,45C227.77777777777777,45.625,238.8888888888889,-25.166666666666668,266.6666666666667,-26C294.44444444444446,-26.833333333333332,305.5555555555556,37.041666666666664,333.33333333333337,41C361.11111111111114,44.958333333333336,372.22222222222223,-9.291666666666666,400,-7C427.77777777777777,-4.708333333333334,438.8888888888889,49.916666666666664,466.6666666666667,52C494.44444444444446,54.083333333333336,505.5555555555556,7.375,533.3333333333334,3C561.1111111111111,-1.375,572.2222222222222,32.041666666666664,600,31C627.7777777777778,29.958333333333332,638.8888888888889,-4.5,666.6666666666667,-2C694.4444444444446,0.5,707.6388888888889,40.5,733.3333333333334,43C759.0277777777778,45.5,778.1944444444445,16.875,790,10" transform="matrix(1,0,0,1,0,1008)"></path><path d="M10,10C21.805555555555557,14.583333333333332,40.97222222222223,40.125,66.66666666666667,32C92.36111111111111,23.875,105.55555555555557,-31.708333333333332,133.33333333333334,-29C161.11111111111111,-26.291666666666668,172.22222222222223,44.375,200,45C227.77777777777777,45.625,238.8888888888889,-25.166666666666668,266.6666666666667,-26C294.44444444444446,-26.833333333333332,305.5555555555556,37.041666666666664,333.33333333333337,41C361.11111111111114,44.958333333333336,372.22222222222223,-9.291666666666666,400,-7C427.77777777777777,-4.708333333333334,438.8888888888889,49.916666666666664,466.6666666666667,52C494.44444444444446,54.083333333333336,505.5555555555556,7.375,533.3333333333334,3C561.1111111111111,-1.375,572.2222222222222,32.041666666666664,600,31C627.7777777777778,29.958333333333332,638.8888888888889,-4.5,666.6666666666667,-2C694.4444444444446,0.5,707.6388888888889,40.5,733.3333333333334,43C759.0277777777778,45.5,778.1944444444445,16.875,790,10" transform="matrix(1,0,0,1,0,987)"></path><path d="M10,10C21.805555555555557,14.583333333333332,40.97222222222223,40.125,66.66666666666667,32C92.36111111111111,23.875,105.55555555555557,-31.708333333333332,133.33333333333334,-29C161.11111111111111,-26.291666666666668,172.22222222222223,44.375,200,45C227.77777777777777,45.625,238.8888888888889,-25.166666666666668,266.6666666666667,-26C294.44444444444446,-26.833333333333332,305.5555555555556,37.041666666666664,333.33333333333337,41C361.11111111111114,44.958333333333336,372.22222222222223,-9.291666666666666,400,-7C427.77777777777777,-4.708333333333334,438.8888888888889,49.916666666666664,466.6666666666667,52C494.44444444444446,54.083333333333336,505.5555555555556,7.375,533.3333333333334,3C561.1111111111111,-1.375,572.2222222222222,32.041666666666664,600,31C627.7777777777778,29.958333333333332,638.8888888888889,-4.5,666.6666666666667,-2C694.4444444444446,0.5,707.6388888888889,40.5,733.3333333333334,43C759.0277777777778,45.5,778.1944444444445,16.875,790,10" transform="matrix(1,0,0,1,0,966)"></path><path d="M10,10C21.805555555555557,14.583333333333332,40.97222222222223,40.125,66.66666666666667,32C92.36111111111111,23.875,105.55555555555557,-31.708333333333332,133.33333333333334,-29C161.11111111111111,-26.291666666666668,172.22222222222223,44.375,200,45C227.77777777777777,45.625,238.8888888888889,-25.166666666666668,266.6666666666667,-26C294.44444444444446,-26.833333333333332,305.5555555555556,37.041666666666664,333.33333333333337,41C361.11111111111114,44.958333333333336,372.22222222222223,-9.291666666666666,400,-7C427.77777777777777,-4.708333333333334,438.8888888888889,49.916666666666664,466.6666666666667,52C494.44444444444446,54.083333333333336,505.5555555555556,7.375,533.3333333333334,3C561.1111111111111,-1.375,572.2222222222222,32.041666666666664,600,31C627.7777777777778,29.958333333333332,638.8888888888889,-4.5,666.6666666666667,-2C694.4444444444446,0.5,707.6388888888889,40.5,733.3333333333334,43C759.0277777777778,45.5,778.1944444444445,16.875,790,10" transform="matrix(1,0,0,1,0,945)"></path><path d="M10,10C21.805555555555557,14.583333333333332,40.97222222222223,40.125,66.66666666666667,32C92.36111111111111,23.875,105.55555555555557,-31.708333333333332,133.33333333333334,-29C161.11111111111111,-26.291666666666668,172.22222222222223,44.375,200,45C227.77777777777777,45.625,238.8888888888889,-25.166666666666668,266.6666666666667,-26C294.44444444444446,-26.833333333333332,305.5555555555556,37.041666666666664,333.33333333333337,41C361.11111111111114,44.958333333333336,372.22222222222223,-9.291666666666666,400,-7C427.77777777777777,-4.708333333333334,438.8888888888889,49.916666666666664,466.6666666666667,52C494.44444444444446,54.083333333333336,505.5555555555556,7.375,533.3333333333334,3C561.1111111111111,-1.375,572.2222222222222,32.041666666666664,600,31C627.7777777777778,29.958333333333332,638.8888888888889,-4.5,666.6666666666667,-2C694.4444444444446,0.5,707.6388888888889,40.5,733.3333333333334,43C759.0277777777778,45.5,778.1944444444445,16.875,790,10" transform="matrix(1,0,0,1,0,924)"></path><path d="M10,10C21.805555555555557,14.583333333333332,40.97222222222223,40.125,66.66666666666667,32C92.36111111111111,23.875,105.55555555555557,-31.708333333333332,133.33333333333334,-29C161.11111111111111,-26.291666666666668,172.22222222222223,44.375,200,45C227.77777777777777,45.625,238.8888888888889,-25.166666666666668,266.6666666666667,-26C294.44444444444446,-26.833333333333332,305.5555555555556,37.041666666666664,333.33333333333337,41C361.11111111111114,44.958333333333336,372.22222222222223,-9.291666666666666,400,-7C427.77777777777777,-4.708333333333334,438.8888888888889,49.916666666666664,466.6666666666667,52C494.44444444444446,54.083333333333336,505.5555555555556,7.375,533.3333333333334,3C561.1111111111111,-1.375,572.2222222222222,32.041666666666664,600,31C627.7777777777778,29.958333333333332,638.8888888888889,-4.5,666.6666666666667,-2C694.4444444444446,0.5,707.6388888888889,40.5,733.3333333333334,43C759.0277777777778,45.5,778.1944444444445,16.875,790,10" transform="matrix(1,0,0,1,0,903)"></path><path d="M10,10C21.805555555555557,14.583333333333332,40.97222222222223,40.125,66.66666666666667,32C92.36111111111111,23.875,105.55555555555557,-31.708333333333332,133.33333333333334,-29C161.11111111111111,-26.291666666666668,172.22222222222223,44.375,200,45C227.77777777777777,45.625,238.8888888888889,-25.166666666666668,266.6666666666667,-26C294.44444444444446,-26.833333333333332,305.5555555555556,37.041666666666664,333.33333333333337,41C361.11111111111114,44.958333333333336,372.22222222222223,-9.291666666666666,400,-7C427.77777777777777,-4.708333333333334,438.8888888888889,49.916666666666664,466.6666666666667,52C494.44444444444446,54.083333333333336,505.5555555555556,7.375,533.3333333333334,3C561.1111111111111,-1.375,572.2222222222222,32.041666666666664,600,31C627.7777777777778,29.958333333333332,638.8888888888889,-4.5,666.6666666666667,-2C694.4444444444446,0.5,707.6388888888889,40.5,733.3333333333334,43C759.0277777777778,45.5,778.1944444444445,16.875,790,10" transform="matrix(1,0,0,1,0,882)"></path><path d="M10,10C21.805555555555557,14.583333333333332,40.97222222222223,40.125,66.66666666666667,32C92.36111111111111,23.875,105.55555555555557,-31.708333333333332,133.33333333333334,-29C161.11111111111111,-26.291666666666668,172.22222222222223,44.375,200,45C227.77777777777777,45.625,238.8888888888889,-25.166666666666668,266.6666666666667,-26C294.44444444444446,-26.833333333333332,305.5555555555556,37.041666666666664,333.33333333333337,41C361.11111111111114,44.958333333333336,372.22222222222223,-9.291666666666666,400,-7C427.77777777777777,-4.708333333333334,438.8888888888889,49.916666666666664,466.6666666666667,52C494.44444444444446,54.083333333333336,505.5555555555556,7.375,533.3333333333334,3C561.1111111111111,-1.375,572.2222222222222,32.041666666666664,600,31C627.7777777777778,29.958333333333332,638.8888888888889,-4.5,666.6666666666667,-2C694.4444444444446,0.5,707.6388888888889,40.5,733.3333333333334,43C759.0277777777778,45.5,778.1944444444445,16.875,790,10" transform="matrix(1,0,0,1,0,861)"></path><path d="M10,10C21.805555555555557,14.583333333333332,40.97222222222223,40.125,66.66666666666667,32C92.36111111111111,23.875,105.55555555555557,-31.708333333333332,133.33333333333334,-29C161.11111111111111,-26.291666666666668,172.22222222222223,44.375,200,45C227.77777777777777,45.625,238.8888888888889,-25.166666666666668,266.6666666666667,-26C294.44444444444446,-26.833333333333332,305.5555555555556,37.041666666666664,333.33333333333337,41C361.11111111111114,44.958333333333336,372.22222222222223,-9.291666666666666,400,-7C427.77777777777777,-4.708333333333334,438.8888888888889,49.916666666666664,466.6666666666667,52C494.44444444444446,54.083333333333336,505.5555555555556,7.375,533.3333333333334,3C561.1111111111111,-1.375,572.2222222222222,32.041666666666664,600,31C627.7777777777778,29.958333333333332,638.8888888888889,-4.5,666.6666666666667,-2C694.4444444444446,0.5,707.6388888888889,40.5,733.3333333333334,43C759.0277777777778,45.5,778.1944444444445,16.875,790,10" transform="matrix(1,0,0,1,0,840)"></path><path d="M10,10C21.805555555555557,14.583333333333332,40.97222222222223,40.125,66.66666666666667,32C92.36111111111111,23.875,105.55555555555557,-31.708333333333332,133.33333333333334,-29C161.11111111111111,-26.291666666666668,172.22222222222223,44.375,200,45C227.77777777777777,45.625,238.8888888888889,-25.166666666666668,266.6666666666667,-26C294.44444444444446,-26.833333333333332,305.5555555555556,37.041666666666664,333.33333333333337,41C361.11111111111114,44.958333333333336,372.22222222222223,-9.291666666666666,400,-7C427.77777777777777,-4.708333333333334,438.8888888888889,49.916666666666664,466.6666666666667,52C494.44444444444446,54.083333333333336,505.5555555555556,7.375,533.3333333333334,3C561.1111111111111,-1.375,572.2222222222222,32.041666666666664,600,31C627.7777777777778,29.958333333333332,638.8888888888889,-4.5,666.6666666666667,-2C694.4444444444446,0.5,707.6388888888889,40.5,733.3333333333334,43C759.0277777777778,45.5,778.1944444444445,16.875,790,10" transform="matrix(1,0,0,1,0,819)"></path><path d="M10,10C21.805555555555557,14.583333333333332,40.97222222222223,40.125,66.66666666666667,32C92.36111111111111,23.875,105.55555555555557,-31.708333333333332,133.33333333333334,-29C161.11111111111111,-26.291666666666668,172.22222222222223,44.375,200,45C227.77777777777777,45.625,238.8888888888889,-25.166666666666668,266.6666666666667,-26C294.44444444444446,-26.833333333333332,305.5555555555556,37.041666666666664,333.33333333333337,41C361.11111111111114,44.958333333333336,372.22222222222223,-9.291666666666666,400,-7C427.77777777777777,-4.708333333333334,438.8888888888889,49.916666666666664,466.6666666666667,52C494.44444444444446,54.083333333333336,505.5555555555556,7.375,533.3333333333334,3C561.1111111111111,-1.375,572.2222222222222,32.041666666666664,600,31C627.7777777777778,29.958333333333332,638.8888888888889,-4.5,666.6666666666667,-2C694.4444444444446,0.5,707.6388888888889,40.5,733.3333333333334,43C759.0277777777778,45.5,778.1944444444445,16.875,790,10" transform="matrix(1,0,0,1,0,798)"></path><path d="M10,10C21.805555555555557,14.583333333333332,40.97222222222223,40.125,66.66666666666667,32C92.36111111111111,23.875,105.55555555555557,-31.708333333333332,133.33333333333334,-29C161.11111111111111,-26.291666666666668,172.22222222222223,44.375,200,45C227.77777777777777,45.625,238.8888888888889,-25.166666666666668,266.6666666666667,-26C294.44444444444446,-26.833333333333332,305.5555555555556,37.041666666666664,333.33333333333337,41C361.11111111111114,44.958333333333336,372.22222222222223,-9.291666666666666,400,-7C427.77777777777777,-4.708333333333334,438.8888888888889,49.916666666666664,466.6666666666667,52C494.44444444444446,54.083333333333336,505.5555555555556,7.375,533.3333333333334,3C561.1111111111111,-1.375,572.2222222222222,32.041666666666664,600,31C627.7777777777778,29.958333333333332,638.8888888888889,-4.5,666.6666666666667,-2C694.4444444444446,0.5,707.6388888888889,40.5,733.3333333333334,43C759.0277777777778,45.5,778.1944444444445,16.875,790,10" transform="matrix(1,0,0,1,0,777)"></path><path d="M10,10C21.805555555555557,14.583333333333332,40.97222222222223,40.125,66.66666666666667,32C92.36111111111111,23.875,105.55555555555557,-31.708333333333332,133.33333333333334,-29C161.11111111111111,-26.291666666666668,172.22222222222223,44.375,200,45C227.77777777777777,45.625,238.8888888888889,-25.166666666666668,266.6666666666667,-26C294.44444444444446,-26.833333333333332,305.5555555555556,37.041666666666664,333.33333333333337,41C361.11111111111114,44.958333333333336,372.22222222222223,-9.291666666666666,400,-7C427.77777777777777,-4.708333333333334,438.8888888888889,49.916666666666664,466.6666666666667,52C494.44444444444446,54.083333333333336,505.5555555555556,7.375,533.3333333333334,3C561.1111111111111,-1.375,572.2222222222222,32.041666666666664,600,31C627.7777777777778,29.958333333333332,638.8888888888889,-4.5,666.6666666666667,-2C694.4444444444446,0.5,707.6388888888889,40.5,733.3333333333334,43C759.0277777777778,45.5,778.1944444444445,16.875,790,10" transform="matrix(1,0,0,1,0,756)"></path><path d="M10,10C21.805555555555557,14.583333333333332,40.97222222222223,40.125,66.66666666666667,32C92.36111111111111,23.875,105.55555555555557,-31.708333333333332,133.33333333333334,-29C161.11111111111111,-26.291666666666668,172.22222222222223,44.375,200,45C227.77777777777777,45.625,238.8888888888889,-25.166666666666668,266.6666666666667,-26C294.44444444444446,-26.833333333333332,305.5555555555556,37.041666666666664,333.33333333333337,41C361.11111111111114,44.958333333333336,372.22222222222223,-9.291666666666666,400,-7C427.77777777777777,-4.708333333333334,438.8888888888889,49.916666666666664,466.6666666666667,52C494.44444444444446,54.083333333333336,505.5555555555556,7.375,533.3333333333334,3C561.1111111111111,-1.375,572.2222222222222,32.041666666666664,600,31C627.7777777777778,29.958333333333332,638.8888888888889,-4.5,666.6666666666667,-2C694.4444444444446,0.5,707.6388888888889,40.5,733.3333333333334,43C759.0277777777778,45.5,778.1944444444445,16.875,790,10" transform="matrix(1,0,0,1,0,735)"></path><path d="M10,10C21.805555555555557,14.583333333333332,40.97222222222223,40.125,66.66666666666667,32C92.36111111111111,23.875,105.55555555555557,-31.708333333333332,133.33333333333334,-29C161.11111111111111,-26.291666666666668,172.22222222222223,44.375,200,45C227.77777777777777,45.625,238.8888888888889,-25.166666666666668,266.6666666666667,-26C294.44444444444446,-26.833333333333332,305.5555555555556,37.041666666666664,333.33333333333337,41C361.11111111111114,44.958333333333336,372.22222222222223,-9.291666666666666,400,-7C427.77777777777777,-4.708333333333334,438.8888888888889,49.916666666666664,466.6666666666667,52C494.44444444444446,54.083333333333336,505.5555555555556,7.375,533.3333333333334,3C561.1111111111111,-1.375,572.2222222222222,32.041666666666664,600,31C627.7777777777778,29.958333333333332,638.8888888888889,-4.5,666.6666666666667,-2C694.4444444444446,0.5,707.6388888888889,40.5,733.3333333333334,43C759.0277777777778,45.5,778.1944444444445,16.875,790,10" transform="matrix(1,0,0,1,0,714)"></path><path d="M10,10C21.805555555555557,14.583333333333332,40.97222222222223,40.125,66.66666666666667,32C92.36111111111111,23.875,105.55555555555557,-31.708333333333332,133.33333333333334,-29C161.11111111111111,-26.291666666666668,172.22222222222223,44.375,200,45C227.77777777777777,45.625,238.8888888888889,-25.166666666666668,266.6666666666667,-26C294.44444444444446,-26.833333333333332,305.5555555555556,37.041666666666664,333.33333333333337,41C361.11111111111114,44.958333333333336,372.22222222222223,-9.291666666666666,400,-7C427.77777777777777,-4.708333333333334,438.8888888888889,49.916666666666664,466.6666666666667,52C494.44444444444446,54.083333333333336,505.5555555555556,7.375,533.3333333333334,3C561.1111111111111,-1.375,572.2222222222222,32.041666666666664,600,31C627.7777777777778,29.958333333333332,638.8888888888889,-4.5,666.6666666666667,-2C694.4444444444446,0.5,707.6388888888889,40.5,733.3333333333334,43C759.0277777777778,45.5,778.1944444444445,16.875,790,10" transform="matrix(1,0,0,1,0,693)"></path><path d="M10,10C21.805555555555557,14.583333333333332,40.97222222222223,40.125,66.66666666666667,32C92.36111111111111,23.875,105.55555555555557,-31.708333333333332,133.33333333333334,-29C161.11111111111111,-26.291666666666668,172.22222222222223,44.375,200,45C227.77777777777777,45.625,238.8888888888889,-25.166666666666668,266.6666666666667,-26C294.44444444444446,-26.833333333333332,305.5555555555556,37.041666666666664,333.33333333333337,41C361.11111111111114,44.958333333333336,372.22222222222223,-9.291666666666666,400,-7C427.77777777777777,-4.708333333333334,438.8888888888889,49.916666666666664,466.6666666666667,52C494.44444444444446,54.083333333333336,505.5555555555556,7.375,533.3333333333334,3C561.1111111111111,-1.375,572.2222222222222,32.041666666666664,600,31C627.7777777777778,29.958333333333332,638.8888888888889,-4.5,666.6666666666667,-2C694.4444444444446,0.5,707.6388888888889,40.5,733.3333333333334,43C759.0277777777778,45.5,778.1944444444445,16.875,790,10" transform="matrix(1,0,0,1,0,672)"></path><path d="M10,10C21.805555555555557,14.583333333333332,40.97222222222223,40.125,66.66666666666667,32C92.36111111111111,23.875,105.55555555555557,-31.708333333333332,133.33333333333334,-29C161.11111111111111,-26.291666666666668,172.22222222222223,44.375,200,45C227.77777777777777,45.625,238.8888888888889,-25.166666666666668,266.6666666666667,-26C294.44444444444446,-26.833333333333332,305.5555555555556,37.041666666666664,333.33333333333337,41C361.11111111111114,44.958333333333336,372.22222222222223,-9.291666666666666,400,-7C427.77777777777777,-4.708333333333334,438.8888888888889,49.916666666666664,466.6666666666667,52C494.44444444444446,54.083333333333336,505.5555555555556,7.375,533.3333333333334,3C561.1111111111111,-1.375,572.2222222222222,32.041666666666664,600,31C627.7777777777778,29.958333333333332,638.8888888888889,-4.5,666.6666666666667,-2C694.4444444444446,0.5,707.6388888888889,40.5,733.3333333333334,43C759.0277777777778,45.5,778.1944444444445,16.875,790,10" transform="matrix(1,0,0,1,0,651)"></path><path d="M10,10C21.805555555555557,14.583333333333332,40.97222222222223,40.125,66.66666666666667,32C92.36111111111111,23.875,105.55555555555557,-31.708333333333332,133.33333333333334,-29C161.11111111111111,-26.291666666666668,172.22222222222223,44.375,200,45C227.77777777777777,45.625,238.8888888888889,-25.166666666666668,266.6666666666667,-26C294.44444444444446,-26.833333333333332,305.5555555555556,37.041666666666664,333.33333333333337,41C361.11111111111114,44.958333333333336,372.22222222222223,-9.291666666666666,400,-7C427.77777777777777,-4.708333333333334,438.8888888888889,49.916666666666664,466.6666666666667,52C494.44444444444446,54.083333333333336,505.5555555555556,7.375,533.3333333333334,3C561.1111111111111,-1.375,572.2222222222222,32.041666666666664,600,31C627.7777777777778,29.958333333333332,638.8888888888889,-4.5,666.6666666666667,-2C694.4444444444446,0.5,707.6388888888889,40.5,733.3333333333334,43C759.0277777777778,45.5,778.1944444444445,16.875,790,10" transform="matrix(1,0,0,1,0,630)"></path><path d="M10,10C21.805555555555557,14.583333333333332,40.97222222222223,40.125,66.66666666666667,32C92.36111111111111,23.875,105.55555555555557,-31.708333333333332,133.33333333333334,-29C161.11111111111111,-26.291666666666668,172.22222222222223,44.375,200,45C227.77777777777777,45.625,238.8888888888889,-25.166666666666668,266.6666666666667,-26C294.44444444444446,-26.833333333333332,305.5555555555556,37.041666666666664,333.33333333333337,41C361.11111111111114,44.958333333333336,372.22222222222223,-9.291666666666666,400,-7C427.77777777777777,-4.708333333333334,438.8888888888889,49.916666666666664,466.6666666666667,52C494.44444444444446,54.083333333333336,505.5555555555556,7.375,533.3333333333334,3C561.1111111111111,-1.375,572.2222222222222,32.041666666666664,600,31C627.7777777777778,29.958333333333332,638.8888888888889,-4.5,666.6666666666667,-2C694.4444444444446,0.5,707.6388888888889,40.5,733.3333333333334,43C759.0277777777778,45.5,778.1944444444445,16.875,790,10" transform="matrix(1,0,0,1,0,609)"></path><path d="M10,10C21.805555555555557,14.583333333333332,40.97222222222223,40.125,66.66666666666667,32C92.36111111111111,23.875,105.55555555555557,-31.708333333333332,133.33333333333334,-29C161.11111111111111,-26.291666666666668,172.22222222222223,44.375,200,45C227.77777777777777,45.625,238.8888888888889,-25.166666666666668,266.6666666666667,-26C294.44444444444446,-26.833333333333332,305.5555555555556,37.041666666666664,333.33333333333337,41C361.11111111111114,44.958333333333336,372.22222222222223,-9.291666666666666,400,-7C427.77777777777777,-4.708333333333334,438.8888888888889,49.916666666666664,466.6666666666667,52C494.44444444444446,54.083333333333336,505.5555555555556,7.375,533.3333333333334,3C561.1111111111111,-1.375,572.2222222222222,32.041666666666664,600,31C627.7777777777778,29.958333333333332,638.8888888888889,-4.5,666.6666666666667,-2C694.4444444444446,0.5,707.6388888888889,40.5,733.3333333333334,43C759.0277777777778,45.5,778.1944444444445,16.875,790,10" transform="matrix(1,0,0,1,0,588)"></path><path d="M10,10C21.805555555555557,14.583333333333332,40.97222222222223,40.125,66.66666666666667,32C92.36111111111111,23.875,105.55555555555557,-31.708333333333332,133.33333333333334,-29C161.11111111111111,-26.291666666666668,172.22222222222223,44.375,200,45C227.77777777777777,45.625,238.8888888888889,-25.166666666666668,266.6666666666667,-26C294.44444444444446,-26.833333333333332,305.5555555555556,37.041666666666664,333.33333333333337,41C361.11111111111114,44.958333333333336,372.22222222222223,-9.291666666666666,400,-7C427.77777777777777,-4.708333333333334,438.8888888888889,49.916666666666664,466.6666666666667,52C494.44444444444446,54.083333333333336,505.5555555555556,7.375,533.3333333333334,3C561.1111111111111,-1.375,572.2222222222222,32.041666666666664,600,31C627.7777777777778,29.958333333333332,638.8888888888889,-4.5,666.6666666666667,-2C694.4444444444446,0.5,707.6388888888889,40.5,733.3333333333334,43C759.0277777777778,45.5,778.1944444444445,16.875,790,10" transform="matrix(1,0,0,1,0,567)"></path><path d="M10,10C21.805555555555557,14.583333333333332,40.97222222222223,40.125,66.66666666666667,32C92.36111111111111,23.875,105.55555555555557,-31.708333333333332,133.33333333333334,-29C161.11111111111111,-26.291666666666668,172.22222222222223,44.375,200,45C227.77777777777777,45.625,238.8888888888889,-25.166666666666668,266.6666666666667,-26C294.44444444444446,-26.833333333333332,305.5555555555556,37.041666666666664,333.33333333333337,41C361.11111111111114,44.958333333333336,372.22222222222223,-9.291666666666666,400,-7C427.77777777777777,-4.708333333333334,438.8888888888889,49.916666666666664,466.6666666666667,52C494.44444444444446,54.083333333333336,505.5555555555556,7.375,533.3333333333334,3C561.1111111111111,-1.375,572.2222222222222,32.041666666666664,600,31C627.7777777777778,29.958333333333332,638.8888888888889,-4.5,666.6666666666667,-2C694.4444444444446,0.5,707.6388888888889,40.5,733.3333333333334,43C759.0277777777778,45.5,778.1944444444445,16.875,790,10" transform="matrix(1,0,0,1,0,546)"></path><path d="M10,10C21.805555555555557,14.583333333333332,40.97222222222223,40.125,66.66666666666667,32C92.36111111111111,23.875,105.55555555555557,-31.708333333333332,133.33333333333334,-29C161.11111111111111,-26.291666666666668,172.22222222222223,44.375,200,45C227.77777777777777,45.625,238.8888888888889,-25.166666666666668,266.6666666666667,-26C294.44444444444446,-26.833333333333332,305.5555555555556,37.041666666666664,333.33333333333337,41C361.11111111111114,44.958333333333336,372.22222222222223,-9.291666666666666,400,-7C427.77777777777777,-4.708333333333334,438.8888888888889,49.916666666666664,466.6666666666667,52C494.44444444444446,54.083333333333336,505.5555555555556,7.375,533.3333333333334,3C561.1111111111111,-1.375,572.2222222222222,32.041666666666664,600,31C627.7777777777778,29.958333333333332,638.8888888888889,-4.5,666.6666666666667,-2C694.4444444444446,0.5,707.6388888888889,40.5,733.3333333333334,43C759.0277777777778,45.5,778.1944444444445,16.875,790,10" transform="matrix(1,0,0,1,0,525)"></path><path d="M10,10C21.805555555555557,14.583333333333332,40.97222222222223,40.125,66.66666666666667,32C92.36111111111111,23.875,105.55555555555557,-31.708333333333332,133.33333333333334,-29C161.11111111111111,-26.291666666666668,172.22222222222223,44.375,200,45C227.77777777777777,45.625,238.8888888888889,-25.166666666666668,266.6666666666667,-26C294.44444444444446,-26.833333333333332,305.5555555555556,37.041666666666664,333.33333333333337,41C361.11111111111114,44.958333333333336,372.22222222222223,-9.291666666666666,400,-7C427.77777777777777,-4.708333333333334,438.8888888888889,49.916666666666664,466.6666666666667,52C494.44444444444446,54.083333333333336,505.5555555555556,7.375,533.3333333333334,3C561.1111111111111,-1.375,572.2222222222222,32.041666666666664,600,31C627.7777777777778,29.958333333333332,638.8888888888889,-4.5,666.6666666666667,-2C694.4444444444446,0.5,707.6388888888889,40.5,733.3333333333334,43C759.0277777777778,45.5,778.1944444444445,16.875,790,10" transform="matrix(1,0,0,1,0,504)"></path><path d="M10,10C21.805555555555557,14.583333333333332,40.97222222222223,40.125,66.66666666666667,32C92.36111111111111,23.875,105.55555555555557,-31.708333333333332,133.33333333333334,-29C161.11111111111111,-26.291666666666668,172.22222222222223,44.375,200,45C227.77777777777777,45.625,238.8888888888889,-25.166666666666668,266.6666666666667,-26C294.44444444444446,-26.833333333333332,305.5555555555556,37.041666666666664,333.33333333333337,41C361.11111111111114,44.958333333333336,372.22222222222223,-9.291666666666666,400,-7C427.77777777777777,-4.708333333333334,438.8888888888889,49.916666666666664,466.6666666666667,52C494.44444444444446,54.083333333333336,505.5555555555556,7.375,533.3333333333334,3C561.1111111111111,-1.375,572.2222222222222,32.041666666666664,600,31C627.7777777777778,29.958333333333332,638.8888888888889,-4.5,666.6666666666667,-2C694.4444444444446,0.5,707.6388888888889,40.5,733.3333333333334,43C759.0277777777778,45.5,778.1944444444445,16.875,790,10" transform="matrix(1,0,0,1,0,483)"></path><path d="M10,10C21.805555555555557,14.583333333333332,40.97222222222223,40.125,66.66666666666667,32C92.36111111111111,23.875,105.55555555555557,-31.708333333333332,133.33333333333334,-29C161.11111111111111,-26.291666666666668,172.22222222222223,44.375,200,45C227.77777777777777,45.625,238.8888888888889,-25.166666666666668,266.6666666666667,-26C294.44444444444446,-26.833333333333332,305.5555555555556,37.041666666666664,333.33333333333337,41C361.11111111111114,44.958333333333336,372.22222222222223,-9.291666666666666,400,-7C427.77777777777777,-4.708333333333334,438.8888888888889,49.916666666666664,466.6666666666667,52C494.44444444444446,54.083333333333336,505.5555555555556,7.375,533.3333333333334,3C561.1111111111111,-1.375,572.2222222222222,32.041666666666664,600,31C627.7777777777778,29.958333333333332,638.8888888888889,-4.5,666.6666666666667,-2C694.4444444444446,0.5,707.6388888888889,40.5,733.3333333333334,43C759.0277777777778,45.5,778.1944444444445,16.875,790,10" transform="matrix(1,0,0,1,0,462)"></path><path d="M10,10C21.805555555555557,14.583333333333332,40.97222222222223,40.125,66.66666666666667,32C92.36111111111111,23.875,105.55555555555557,-31.708333333333332,133.33333333333334,-29C161.11111111111111,-26.291666666666668,172.22222222222223,44.375,200,45C227.77777777777777,45.625,238.8888888888889,-25.166666666666668,266.6666666666667,-26C294.44444444444446,-26.833333333333332,305.5555555555556,37.041666666666664,333.33333333333337,41C361.11111111111114,44.958333333333336,372.22222222222223,-9.291666666666666,400,-7C427.77777777777777,-4.708333333333334,438.8888888888889,49.916666666666664,466.6666666666667,52C494.44444444444446,54.083333333333336,505.5555555555556,7.375,533.3333333333334,3C561.1111111111111,-1.375,572.2222222222222,32.041666666666664,600,31C627.7777777777778,29.958333333333332,638.8888888888889,-4.5,666.6666666666667,-2C694.4444444444446,0.5,707.6388888888889,40.5,733.3333333333334,43C759.0277777777778,45.5,778.1944444444445,16.875,790,10" transform="matrix(1,0,0,1,0,441)"></path><path d="M10,10C21.805555555555557,14.583333333333332,40.97222222222223,40.125,66.66666666666667,32C92.36111111111111,23.875,105.55555555555557,-31.708333333333332,133.33333333333334,-29C161.11111111111111,-26.291666666666668,172.22222222222223,44.375,200,45C227.77777777777777,45.625,238.8888888888889,-25.166666666666668,266.6666666666667,-26C294.44444444444446,-26.833333333333332,305.5555555555556,37.041666666666664,333.33333333333337,41C361.11111111111114,44.958333333333336,372.22222222222223,-9.291666666666666,400,-7C427.77777777777777,-4.708333333333334,438.8888888888889,49.916666666666664,466.6666666666667,52C494.44444444444446,54.083333333333336,505.5555555555556,7.375,533.3333333333334,3C561.1111111111111,-1.375,572.2222222222222,32.041666666666664,600,31C627.7777777777778,29.958333333333332,638.8888888888889,-4.5,666.6666666666667,-2C694.4444444444446,0.5,707.6388888888889,40.5,733.3333333333334,43C759.0277777777778,45.5,778.1944444444445,16.875,790,10" transform="matrix(1,0,0,1,0,420)"></path><path d="M10,10C21.805555555555557,14.583333333333332,40.97222222222223,40.125,66.66666666666667,32C92.36111111111111,23.875,105.55555555555557,-31.708333333333332,133.33333333333334,-29C161.11111111111111,-26.291666666666668,172.22222222222223,44.375,200,45C227.77777777777777,45.625,238.8888888888889,-25.166666666666668,266.6666666666667,-26C294.44444444444446,-26.833333333333332,305.5555555555556,37.041666666666664,333.33333333333337,41C361.11111111111114,44.958333333333336,372.22222222222223,-9.291666666666666,400,-7C427.77777777777777,-4.708333333333334,438.8888888888889,49.916666666666664,466.6666666666667,52C494.44444444444446,54.083333333333336,505.5555555555556,7.375,533.3333333333334,3C561.1111111111111,-1.375,572.2222222222222,32.041666666666664,600,31C627.7777777777778,29.958333333333332,638.8888888888889,-4.5,666.6666666666667,-2C694.4444444444446,0.5,707.6388888888889,40.5,733.3333333333334,43C759.0277777777778,45.5,778.1944444444445,16.875,790,10" transform="matrix(1,0,0,1,0,399)"></path><path d="M10,10C21.805555555555557,14.583333333333332,40.97222222222223,40.125,66.66666666666667,32C92.36111111111111,23.875,105.55555555555557,-31.708333333333332,133.33333333333334,-29C161.11111111111111,-26.291666666666668,172.22222222222223,44.375,200,45C227.77777777777777,45.625,238.8888888888889,-25.166666666666668,266.6666666666667,-26C294.44444444444446,-26.833333333333332,305.5555555555556,37.041666666666664,333.33333333333337,41C361.11111111111114,44.958333333333336,372.22222222222223,-9.291666666666666,400,-7C427.77777777777777,-4.708333333333334,438.8888888888889,49.916666666666664,466.6666666666667,52C494.44444444444446,54.083333333333336,505.5555555555556,7.375,533.3333333333334,3C561.1111111111111,-1.375,572.2222222222222,32.041666666666664,600,31C627.7777777777778,29.958333333333332,638.8888888888889,-4.5,666.6666666666667,-2C694.4444444444446,0.5,707.6388888888889,40.5,733.3333333333334,43C759.0277777777778,45.5,778.1944444444445,16.875,790,10" transform="matrix(1,0,0,1,0,378)"></path><path d="M10,10C21.805555555555557,14.583333333333332,40.97222222222223,40.125,66.66666666666667,32C92.36111111111111,23.875,105.55555555555557,-31.708333333333332,133.33333333333334,-29C161.11111111111111,-26.291666666666668,172.22222222222223,44.375,200,45C227.77777777777777,45.625,238.8888888888889,-25.166666666666668,266.6666666666667,-26C294.44444444444446,-26.833333333333332,305.5555555555556,37.041666666666664,333.33333333333337,41C361.11111111111114,44.958333333333336,372.22222222222223,-9.291666666666666,400,-7C427.77777777777777,-4.708333333333334,438.8888888888889,49.916666666666664,466.6666666666667,52C494.44444444444446,54.083333333333336,505.5555555555556,7.375,533.3333333333334,3C561.1111111111111,-1.375,572.2222222222222,32.041666666666664,600,31C627.7777777777778,29.958333333333332,638.8888888888889,-4.5,666.6666666666667,-2C694.4444444444446,0.5,707.6388888888889,40.5,733.3333333333334,43C759.0277777777778,45.5,778.1944444444445,16.875,790,10" transform="matrix(1,0,0,1,0,357)"></path><path d="M10,10C21.805555555555557,14.583333333333332,40.97222222222223,40.125,66.66666666666667,32C92.36111111111111,23.875,105.55555555555557,-31.708333333333332,133.33333333333334,-29C161.11111111111111,-26.291666666666668,172.22222222222223,44.375,200,45C227.77777777777777,45.625,238.8888888888889,-25.166666666666668,266.6666666666667,-26C294.44444444444446,-26.833333333333332,305.5555555555556,37.041666666666664,333.33333333333337,41C361.11111111111114,44.958333333333336,372.22222222222223,-9.291666666666666,400,-7C427.77777777777777,-4.708333333333334,438.8888888888889,49.916666666666664,466.6666666666667,52C494.44444444444446,54.083333333333336,505.5555555555556,7.375,533.3333333333334,3C561.1111111111111,-1.375,572.2222222222222,32.041666666666664,600,31C627.7777777777778,29.958333333333332,638.8888888888889,-4.5,666.6666666666667,-2C694.4444444444446,0.5,707.6388888888889,40.5,733.3333333333334,43C759.0277777777778,45.5,778.1944444444445,16.875,790,10" transform="matrix(1,0,0,1,0,336)"></path><path d="M10,10C21.805555555555557,14.583333333333332,40.97222222222223,40.125,66.66666666666667,32C92.36111111111111,23.875,105.55555555555557,-31.708333333333332,133.33333333333334,-29C161.11111111111111,-26.291666666666668,172.22222222222223,44.375,200,45C227.77777777777777,45.625,238.8888888888889,-25.166666666666668,266.6666666666667,-26C294.44444444444446,-26.833333333333332,305.5555555555556,37.041666666666664,333.33333333333337,41C361.11111111111114,44.958333333333336,372.22222222222223,-9.291666666666666,400,-7C427.77777777777777,-4.708333333333334,438.8888888888889,49.916666666666664,466.6666666666667,52C494.44444444444446,54.083333333333336,505.5555555555556,7.375,533.3333333333334,3C561.1111111111111,-1.375,572.2222222222222,32.041666666666664,600,31C627.7777777777778,29.958333333333332,638.8888888888889,-4.5,666.6666666666667,-2C694.4444444444446,0.5,707.6388888888889,40.5,733.3333333333334,43C759.0277777777778,45.5,778.1944444444445,16.875,790,10" transform="matrix(1,0,0,1,0,315)"></path><path d="M10,10C21.805555555555557,14.583333333333332,40.97222222222223,40.125,66.66666666666667,32C92.36111111111111,23.875,105.55555555555557,-31.708333333333332,133.33333333333334,-29C161.11111111111111,-26.291666666666668,172.22222222222223,44.375,200,45C227.77777777777777,45.625,238.8888888888889,-25.166666666666668,266.6666666666667,-26C294.44444444444446,-26.833333333333332,305.5555555555556,37.041666666666664,333.33333333333337,41C361.11111111111114,44.958333333333336,372.22222222222223,-9.291666666666666,400,-7C427.77777777777777,-4.708333333333334,438.8888888888889,49.916666666666664,466.6666666666667,52C494.44444444444446,54.083333333333336,505.5555555555556,7.375,533.3333333333334,3C561.1111111111111,-1.375,572.2222222222222,32.041666666666664,600,31C627.7777777777778,29.958333333333332,638.8888888888889,-4.5,666.6666666666667,-2C694.4444444444446,0.5,707.6388888888889,40.5,733.3333333333334,43C759.0277777777778,45.5,778.1944444444445,16.875,790,10" transform="matrix(1,0,0,1,0,294)"></path><path d="M10,10C21.805555555555557,14.583333333333332,40.97222222222223,40.125,66.66666666666667,32C92.36111111111111,23.875,105.55555555555557,-31.708333333333332,133.33333333333334,-29C161.11111111111111,-26.291666666666668,172.22222222222223,44.375,200,45C227.77777777777777,45.625,238.8888888888889,-25.166666666666668,266.6666666666667,-26C294.44444444444446,-26.833333333333332,305.5555555555556,37.041666666666664,333.33333333333337,41C361.11111111111114,44.958333333333336,372.22222222222223,-9.291666666666666,400,-7C427.77777777777777,-4.708333333333334,438.8888888888889,49.916666666666664,466.6666666666667,52C494.44444444444446,54.083333333333336,505.5555555555556,7.375,533.3333333333334,3C561.1111111111111,-1.375,572.2222222222222,32.041666666666664,600,31C627.7777777777778,29.958333333333332,638.8888888888889,-4.5,666.6666666666667,-2C694.4444444444446,0.5,707.6388888888889,40.5,733.3333333333334,43C759.0277777777778,45.5,778.1944444444445,16.875,790,10" transform="matrix(1,0,0,1,0,273)"></path><path d="M10,10C21.805555555555557,14.583333333333332,40.97222222222223,40.125,66.66666666666667,32C92.36111111111111,23.875,105.55555555555557,-31.708333333333332,133.33333333333334,-29C161.11111111111111,-26.291666666666668,172.22222222222223,44.375,200,45C227.77777777777777,45.625,238.8888888888889,-25.166666666666668,266.6666666666667,-26C294.44444444444446,-26.833333333333332,305.5555555555556,37.041666666666664,333.33333333333337,41C361.11111111111114,44.958333333333336,372.22222222222223,-9.291666666666666,400,-7C427.77777777777777,-4.708333333333334,438.8888888888889,49.916666666666664,466.6666666666667,52C494.44444444444446,54.083333333333336,505.5555555555556,7.375,533.3333333333334,3C561.1111111111111,-1.375,572.2222222222222,32.041666666666664,600,31C627.7777777777778,29.958333333333332,638.8888888888889,-4.5,666.6666666666667,-2C694.4444444444446,0.5,707.6388888888889,40.5,733.3333333333334,43C759.0277777777778,45.5,778.1944444444445,16.875,790,10" transform="matrix(1,0,0,1,0,252)"></path><path d="M10,10C21.805555555555557,14.583333333333332,40.97222222222223,40.125,66.66666666666667,32C92.36111111111111,23.875,105.55555555555557,-31.708333333333332,133.33333333333334,-29C161.11111111111111,-26.291666666666668,172.22222222222223,44.375,200,45C227.77777777777777,45.625,238.8888888888889,-25.166666666666668,266.6666666666667,-26C294.44444444444446,-26.833333333333332,305.5555555555556,37.041666666666664,333.33333333333337,41C361.11111111111114,44.958333333333336,372.22222222222223,-9.291666666666666,400,-7C427.77777777777777,-4.708333333333334,438.8888888888889,49.916666666666664,466.6666666666667,52C494.44444444444446,54.083333333333336,505.5555555555556,7.375,533.3333333333334,3C561.1111111111111,-1.375,572.2222222222222,32.041666666666664,600,31C627.7777777777778,29.958333333333332,638.8888888888889,-4.5,666.6666666666667,-2C694.4444444444446,0.5,707.6388888888889,40.5,733.3333333333334,43C759.0277777777778,45.5,778.1944444444445,16.875,790,10" transform="matrix(1,0,0,1,0,231)"></path><path d="M10,10C21.805555555555557,14.583333333333332,40.97222222222223,40.125,66.66666666666667,32C92.36111111111111,23.875,105.55555555555557,-31.708333333333332,133.33333333333334,-29C161.11111111111111,-26.291666666666668,172.22222222222223,44.375,200,45C227.77777777777777,45.625,238.8888888888889,-25.166666666666668,266.6666666666667,-26C294.44444444444446,-26.833333333333332,305.5555555555556,37.041666666666664,333.33333333333337,41C361.11111111111114,44.958333333333336,372.22222222222223,-9.291666666666666,400,-7C427.77777777777777,-4.708333333333334,438.8888888888889,49.916666666666664,466.6666666666667,52C494.44444444444446,54.083333333333336,505.5555555555556,7.375,533.3333333333334,3C561.1111111111111,-1.375,572.2222222222222,32.041666666666664,600,31C627.7777777777778,29.958333333333332,638.8888888888889,-4.5,666.6666666666667,-2C694.4444444444446,0.5,707.6388888888889,40.5,733.3333333333334,43C759.0277777777778,45.5,778.1944444444445,16.875,790,10" transform="matrix(1,0,0,1,0,210)"></path><path d="M10,10C21.805555555555557,14.583333333333332,40.97222222222223,40.125,66.66666666666667,32C92.36111111111111,23.875,105.55555555555557,-31.708333333333332,133.33333333333334,-29C161.11111111111111,-26.291666666666668,172.22222222222223,44.375,200,45C227.77777777777777,45.625,238.8888888888889,-25.166666666666668,266.6666666666667,-26C294.44444444444446,-26.833333333333332,305.5555555555556,37.041666666666664,333.33333333333337,41C361.11111111111114,44.958333333333336,372.22222222222223,-9.291666666666666,400,-7C427.77777777777777,-4.708333333333334,438.8888888888889,49.916666666666664,466.6666666666667,52C494.44444444444446,54.083333333333336,505.5555555555556,7.375,533.3333333333334,3C561.1111111111111,-1.375,572.2222222222222,32.041666666666664,600,31C627.7777777777778,29.958333333333332,638.8888888888889,-4.5,666.6666666666667,-2C694.4444444444446,0.5,707.6388888888889,40.5,733.3333333333334,43C759.0277777777778,45.5,778.1944444444445,16.875,790,10" transform="matrix(1,0,0,1,0,189)"></path><path d="M10,10C21.805555555555557,14.583333333333332,40.97222222222223,40.125,66.66666666666667,32C92.36111111111111,23.875,105.55555555555557,-31.708333333333332,133.33333333333334,-29C161.11111111111111,-26.291666666666668,172.22222222222223,44.375,200,45C227.77777777777777,45.625,238.8888888888889,-25.166666666666668,266.6666666666667,-26C294.44444444444446,-26.833333333333332,305.5555555555556,37.041666666666664,333.33333333333337,41C361.11111111111114,44.958333333333336,372.22222222222223,-9.291666666666666,400,-7C427.77777777777777,-4.708333333333334,438.8888888888889,49.916666666666664,466.6666666666667,52C494.44444444444446,54.083333333333336,505.5555555555556,7.375,533.3333333333334,3C561.1111111111111,-1.375,572.2222222222222,32.041666666666664,600,31C627.7777777777778,29.958333333333332,638.8888888888889,-4.5,666.6666666666667,-2C694.4444444444446,0.5,707.6388888888889,40.5,733.3333333333334,43C759.0277777777778,45.5,778.1944444444445,16.875,790,10" transform="matrix(1,0,0,1,0,168)"></path><path d="M10,10C21.805555555555557,14.583333333333332,40.97222222222223,40.125,66.66666666666667,32C92.36111111111111,23.875,105.55555555555557,-31.708333333333332,133.33333333333334,-29C161.11111111111111,-26.291666666666668,172.22222222222223,44.375,200,45C227.77777777777777,45.625,238.8888888888889,-25.166666666666668,266.6666666666667,-26C294.44444444444446,-26.833333333333332,305.5555555555556,37.041666666666664,333.33333333333337,41C361.11111111111114,44.958333333333336,372.22222222222223,-9.291666666666666,400,-7C427.77777777777777,-4.708333333333334,438.8888888888889,49.916666666666664,466.6666666666667,52C494.44444444444446,54.083333333333336,505.5555555555556,7.375,533.3333333333334,3C561.1111111111111,-1.375,572.2222222222222,32.041666666666664,600,31C627.7777777777778,29.958333333333332,638.8888888888889,-4.5,666.6666666666667,-2C694.4444444444446,0.5,707.6388888888889,40.5,733.3333333333334,43C759.0277777777778,45.5,778.1944444444445,16.875,790,10" transform="matrix(1,0,0,1,0,147)"></path><path d="M10,10C21.805555555555557,14.583333333333332,40.97222222222223,40.125,66.66666666666667,32C92.36111111111111,23.875,105.55555555555557,-31.708333333333332,133.33333333333334,-29C161.11111111111111,-26.291666666666668,172.22222222222223,44.375,200,45C227.77777777777777,45.625,238.8888888888889,-25.166666666666668,266.6666666666667,-26C294.44444444444446,-26.833333333333332,305.5555555555556,37.041666666666664,333.33333333333337,41C361.11111111111114,44.958333333333336,372.22222222222223,-9.291666666666666,400,-7C427.77777777777777,-4.708333333333334,438.8888888888889,49.916666666666664,466.6666666666667,52C494.44444444444446,54.083333333333336,505.5555555555556,7.375,533.3333333333334,3C561.1111111111111,-1.375,572.2222222222222,32.041666666666664,600,31C627.7777777777778,29.958333333333332,638.8888888888889,-4.5,666.6666666666667,-2C694.4444444444446,0.5,707.6388888888889,40.5,733.3333333333334,43C759.0277777777778,45.5,778.1944444444445,16.875,790,10" transform="matrix(1,0,0,1,0,126)"></path><path d="M10,10C21.805555555555557,14.583333333333332,40.97222222222223,40.125,66.66666666666667,32C92.36111111111111,23.875,105.55555555555557,-31.708333333333332,133.33333333333334,-29C161.11111111111111,-26.291666666666668,172.22222222222223,44.375,200,45C227.77777777777777,45.625,238.8888888888889,-25.166666666666668,266.6666666666667,-26C294.44444444444446,-26.833333333333332,305.5555555555556,37.041666666666664,333.33333333333337,41C361.11111111111114,44.958333333333336,372.22222222222223,-9.291666666666666,400,-7C427.77777777777777,-4.708333333333334,438.8888888888889,49.916666666666664,466.6666666666667,52C494.44444444444446,54.083333333333336,505.5555555555556,7.375,533.3333333333334,3C561.1111111111111,-1.375,572.2222222222222,32.041666666666664,600,31C627.7777777777778,29.958333333333332,638.8888888888889,-4.5,666.6666666666667,-2C694.4444444444446,0.5,707.6388888888889,40.5,733.3333333333334,43C759.0277777777778,45.5,778.1944444444445,16.875,790,10" transform="matrix(1,0,0,1,0,105)"></path><path d="M10,10C21.805555555555557,14.583333333333332,40.97222222222223,40.125,66.66666666666667,32C92.36111111111111,23.875,105.55555555555557,-31.708333333333332,133.33333333333334,-29C161.11111111111111,-26.291666666666668,172.22222222222223,44.375,200,45C227.77777777777777,45.625,238.8888888888889,-25.166666666666668,266.6666666666667,-26C294.44444444444446,-26.833333333333332,305.5555555555556,37.041666666666664,333.33333333333337,41C361.11111111111114,44.958333333333336,372.22222222222223,-9.291666666666666,400,-7C427.77777777777777,-4.708333333333334,438.8888888888889,49.916666666666664,466.6666666666667,52C494.44444444444446,54.083333333333336,505.5555555555556,7.375,533.3333333333334,3C561.1111111111111,-1.375,572.2222222222222,32.041666666666664,600,31C627.7777777777778,29.958333333333332,638.8888888888889,-4.5,666.6666666666667,-2C694.4444444444446,0.5,707.6388888888889,40.5,733.3333333333334,43C759.0277777777778,45.5,778.1944444444445,16.875,790,10" transform="matrix(1,0,0,1,0,84)"></path><path d="M10,10C21.805555555555557,14.583333333333332,40.97222222222223,40.125,66.66666666666667,32C92.36111111111111,23.875,105.55555555555557,-31.708333333333332,133.33333333333334,-29C161.11111111111111,-26.291666666666668,172.22222222222223,44.375,200,45C227.77777777777777,45.625,238.8888888888889,-25.166666666666668,266.6666666666667,-26C294.44444444444446,-26.833333333333332,305.5555555555556,37.041666666666664,333.33333333333337,41C361.11111111111114,44.958333333333336,372.22222222222223,-9.291666666666666,400,-7C427.77777777777777,-4.708333333333334,438.8888888888889,49.916666666666664,466.6666666666667,52C494.44444444444446,54.083333333333336,505.5555555555556,7.375,533.3333333333334,3C561.1111111111111,-1.375,572.2222222222222,32.041666666666664,600,31C627.7777777777778,29.958333333333332,638.8888888888889,-4.5,666.6666666666667,-2C694.4444444444446,0.5,707.6388888888889,40.5,733.3333333333334,43C759.0277777777778,45.5,778.1944444444445,16.875,790,10" transform="matrix(1,0,0,1,0,63)"></path><path d="M10,10C21.805555555555557,14.583333333333332,40.97222222222223,40.125,66.66666666666667,32C92.36111111111111,23.875,105.55555555555557,-31.708333333333332,133.33333333333334,-29C161.11111111111111,-26.291666666666668,172.22222222222223,44.375,200,45C227.77777777777777,45.625,238.8888888888889,-25.166666666666668,266.6666666666667,-26C294.44444444444446,-26.833333333333332,305.5555555555556,37.041666666666664,333.33333333333337,41C361.11111111111114,44.958333333333336,372.22222222222223,-9.291666666666666,400,-7C427.77777777777777,-4.708333333333334,438.8888888888889,49.916666666666664,466.6666666666667,52C494.44444444444446,54.083333333333336,505.5555555555556,7.375,533.3333333333334,3C561.1111111111111,-1.375,572.2222222222222,32.041666666666664,600,31C627.7777777777778,29.958333333333332,638.8888888888889,-4.5,666.6666666666667,-2C694.4444444444446,0.5,707.6388888888889,40.5,733.3333333333334,43C759.0277777777778,45.5,778.1944444444445,16.875,790,10" transform="matrix(1,0,0,1,0,42)"></path><path d="M10,10C21.805555555555557,14.583333333333332,40.97222222222223,40.125,66.66666666666667,32C92.36111111111111,23.875,105.55555555555557,-31.708333333333332,133.33333333333334,-29C161.11111111111111,-26.291666666666668,172.22222222222223,44.375,200,45C227.77777777777777,45.625,238.8888888888889,-25.166666666666668,266.6666666666667,-26C294.44444444444446,-26.833333333333332,305.5555555555556,37.041666666666664,333.33333333333337,41C361.11111111111114,44.958333333333336,372.22222222222223,-9.291666666666666,400,-7C427.77777777777777,-4.708333333333334,438.8888888888889,49.916666666666664,466.6666666666667,52C494.44444444444446,54.083333333333336,505.5555555555556,7.375,533.3333333333334,3C561.1111111111111,-1.375,572.2222222222222,32.041666666666664,600,31C627.7777777777778,29.958333333333332,638.8888888888889,-4.5,666.6666666666667,-2C694.4444444444446,0.5,707.6388888888889,40.5,733.3333333333334,43C759.0277777777778,45.5,778.1944444444445,16.875,790,10" transform="matrix(1,0,0,1,0,21)"></path></g></svg>